<svg width="16" height="16" viewBox="0 0 16 16" fill="none" xmlns="http://www.w3.org/2000/svg">
<path d="M8 8H8.00667" stroke="#25292E" stroke-width="1.33333" stroke-linecap="round" stroke-linejoin="round"/>
<path d="M10.6667 3.99999V2.66666C10.6667 2.31304 10.5262 1.9739 10.2762 1.72385C10.0261 1.4738 9.687 1.33333 9.33337 1.33333H6.66671C6.31309 1.33333 5.97395 1.4738 5.7239 1.72385C5.47385 1.9739 5.33337 2.31304 5.33337 2.66666V3.99999" stroke="#25292E" stroke-width="1.33333" stroke-linecap="round" stroke-linejoin="round"/>
<path d="M14.6667 8.66667C12.6886 9.97266 10.3704 10.6689 8.00004 10.6689C5.62968 10.6689 3.31151 9.97266 1.33337 8.66667" stroke="#25292E" stroke-width="1.33333" stroke-linecap="round" stroke-linejoin="round"/>
<path d="M13.3334 4H2.66671C1.93033 4 1.33337 4.59695 1.33337 5.33333V12C1.33337 12.7364 1.93033 13.3333 2.66671 13.3333H13.3334C14.0698 13.3333 14.6667 12.7364 14.6667 12V5.33333C14.6667 4.59695 14.0698 4 13.3334 4Z" stroke="#25292E" stroke-width="1.33333" stroke-linecap="round" stroke-linejoin="round"/>
</svg>
