<svg width="16" height="16" viewBox="0 0 16 16" fill="none" xmlns="http://www.w3.org/2000/svg">
<path d="M8 4V8L10.6667 9.33333" stroke="#25292E" stroke-width="1.33333" stroke-linecap="round" stroke-linejoin="round"/>
<path d="M13.3333 8V11.3333" stroke="#25292E" stroke-width="1.33333" stroke-linecap="round" stroke-linejoin="round"/>
<path d="M13.3333 14H13.34" stroke="#25292E" stroke-width="1.33333" stroke-linecap="round" stroke-linejoin="round"/>
<path d="M14.1667 5.46666C13.6638 4.24091 12.8071 3.19279 11.7059 2.45608C10.6047 1.71936 9.30901 1.32747 7.98412 1.3304C6.65922 1.33333 5.36525 1.73097 4.26734 2.47255C3.16944 3.21414 2.31739 4.26604 1.81995 5.49401C1.32251 6.72198 1.20224 8.07031 1.47448 9.36694C1.74672 10.6636 2.39914 11.8497 3.34845 12.7739C4.29777 13.6981 5.50094 14.3184 6.80439 14.5558C8.10785 14.7932 9.45248 14.6368 10.6667 14.1067" stroke="#25292E" stroke-width="1.33333" stroke-linecap="round" stroke-linejoin="round"/>
</svg>
