<svg width="16" height="16" viewBox="0 0 16 16" fill="none" xmlns="http://www.w3.org/2000/svg">
<path d="M0.75 0C0.948912 0 1.13968 0.0790175 1.28033 0.21967C1.42098 0.360322 1.5 0.551088 1.5 0.75V13.25C1.5 13.94 2.06 14.5 2.75 14.5H15.25C15.4489 14.5 15.6397 14.579 15.7803 14.7197C15.921 14.8603 16 15.0511 16 15.25C16 15.4489 15.921 15.6397 15.7803 15.7803C15.6397 15.921 15.4489 16 15.25 16H2.75C2.02065 16 1.32118 15.7103 0.805456 15.1945C0.289731 14.6788 0 13.9793 0 13.25V0.75C0 0.551088 0.0790175 0.360322 0.21967 0.21967C0.360322 0.0790175 0.551088 0 0.75 0ZM14 3.5V13.5H2.75C2.6837 13.5 2.62011 13.4737 2.57322 13.4268C2.52634 13.3799 2.5 13.3163 2.5 13.25V6.064L4.797 5.044C4.86863 5.01203 4.94678 4.99737 5.02513 5.00119C5.10347 5.00501 5.17982 5.02721 5.248 5.066L8.453 6.897L13.188 3.11C13.2615 3.05129 13.3501 3.01452 13.4436 3.0039C13.5371 2.99329 13.6317 3.00927 13.7165 3.05C13.8013 3.09074 13.8729 3.15457 13.923 3.23417C13.9732 3.31378 13.9999 3.40592 14 3.5Z" fill="#F9FAFB"/>
</svg>
