<svg width="17" height="17" viewBox="0 0 17 17" fill="none" xmlns="http://www.w3.org/2000/svg">
<path d="M16.4522 8.59708L8.95219 0.26375C8.63636 -0.0879167 8.02969 -0.0879167 7.71386 0.26375L0.213856 8.59708C0.10609 8.71685 0.0353535 8.86529 0.0102104 9.02443C-0.0149327 9.18357 0.00659568 9.34659 0.0721893 9.49375C0.205523 9.79458 0.503856 9.98792 0.833023 9.98792H2.49969V15.8212C2.49969 16.0423 2.58749 16.2542 2.74377 16.4105C2.90005 16.5668 3.11201 16.6546 3.33302 16.6546H5.83302C6.05404 16.6546 6.266 16.5668 6.42228 16.4105C6.57856 16.2542 6.66636 16.0423 6.66636 15.8212V12.4879H9.99969V15.8212C9.99969 16.0423 10.0875 16.2542 10.2438 16.4105C10.4 16.5668 10.612 16.6546 10.833 16.6546H13.333C13.554 16.6546 13.766 16.5668 13.9223 16.4105C14.0786 16.2542 14.1664 16.0423 14.1664 15.8212V9.98792H15.833C15.9944 9.9886 16.1525 9.94232 16.2881 9.85471C16.4236 9.76709 16.5307 9.64193 16.5963 9.49449C16.662 9.34705 16.6833 9.1837 16.6577 9.02435C16.6321 8.86501 16.5607 8.71655 16.4522 8.59708Z" fill="#4A5A6A"/>
</svg>
