<svg width="19" height="20" viewBox="0 0 19 20" fill="none" xmlns="http://www.w3.org/2000/svg">
<path d="M15.25 14.9609L16.5 13.7109V20H0.25V0H11.1387L16.0117 4.87305C15.7839 4.94466 15.5885 5.01953 15.4258 5.09766C15.263 5.17578 15.1068 5.26693 14.957 5.37109C14.8073 5.47526 14.6706 5.59245 14.5469 5.72266C14.4232 5.85286 14.2799 5.99609 14.1172 6.15234L14.0195 6.25H10.25V1.25H1.5V18.75H15.25V14.9609ZM11.5 5H14.3613L11.5 2.13867V5ZM17.0469 6.25C17.3203 6.25 17.5742 6.29883 17.8086 6.39648C18.043 6.49414 18.2513 6.63086 18.4336 6.80664C18.6159 6.98242 18.7526 7.1875 18.8438 7.42188C18.9349 7.65625 18.987 7.91016 19 8.18359C19 8.4375 18.9512 8.6849 18.8535 8.92578C18.7559 9.16667 18.6159 9.37825 18.4336 9.56055L11.4316 16.582C11.3861 16.5951 11.2656 16.6243 11.0703 16.6699C10.875 16.7155 10.6439 16.7741 10.377 16.8457C10.11 16.9173 9.82031 16.9889 9.50781 17.0605C9.19531 17.1322 8.91536 17.2038 8.66797 17.2754C8.42057 17.347 8.20573 17.3991 8.02344 17.4316C7.84115 17.4642 7.75 17.487 7.75 17.5H2.75V16.25H8.0625L8.66797 13.8184L15.6699 6.80664C15.8522 6.62435 16.0638 6.48763 16.3047 6.39648C16.5456 6.30534 16.793 6.25651 17.0469 6.25ZM17.5449 8.68164C17.6816 8.54492 17.75 8.37891 17.75 8.18359C17.75 7.98177 17.6849 7.81901 17.5547 7.69531C17.4245 7.57161 17.2552 7.50651 17.0469 7.5C16.9557 7.5 16.8678 7.51302 16.7832 7.53906C16.6986 7.5651 16.6237 7.61393 16.5586 7.68555L9.80078 14.4629L9.46875 15.7812L10.7871 15.4492L17.5449 8.68164Z" fill="#4A5A6A"/>
</svg>
