<svg width="20" height="21" viewBox="0 0 20 21" fill="none" xmlns="http://www.w3.org/2000/svg">
<path d="M15 3C15.663 3 16.2989 3.26339 16.7678 3.73223C17.2366 4.20107 17.5 4.83696 17.5 5.5V7.28583C17.5 7.56417 17.5 7.70333 17.4358 7.805C17.4026 7.85787 17.3579 7.90258 17.305 7.93583C17.2033 8 17.0642 8 16.7858 8H12.5M15 3C14.337 3 13.7011 3.26339 13.2322 3.73223C12.7634 4.20107 12.5 4.83696 12.5 5.5V8M15 3H5.83333C4.26167 3 3.47667 3 2.98833 3.48833C2.5 3.97667 2.5 4.76167 2.5 6.33333V18L5 17.1667L7.5 18L10 17.1667L12.5 18V8" stroke="white" stroke-width="2"/>
<path d="M5.83331 6.33331H9.16665M6.66665 9.66665H5.83331M5.83331 13H8.33331" stroke="white" stroke-width="2" stroke-linecap="round"/>
</svg>
