<svg width="17" height="17" viewBox="0 0 17 17" fill="none" xmlns="http://www.w3.org/2000/svg">
<path d="M12.3333 0.5C12.971 0.499964 13.5846 0.743604 14.0485 1.18107C14.5125 1.61854 14.7917 2.21676 14.8292 2.85333L14.8333 3V11.3333H15.4583C15.9975 11.3333 16.4417 11.7433 16.495 12.2683L16.5 12.375V13.8333C16.5 14.471 16.2564 15.0846 15.8189 15.5485C15.3815 16.0125 14.7832 16.2918 14.1467 16.3292L14 16.3333H5.66666C5.02898 16.3334 4.41539 16.0897 3.95144 15.6523C3.48748 15.2148 3.20823 14.6166 3.17082 13.98L3.16666 13.8333V5.5H1.70832C1.45044 5.50012 1.20168 5.40457 1.01019 5.23186C0.818687 5.05914 0.698064 4.82153 0.671657 4.565L0.666656 4.45833V3C0.666621 2.36232 0.910261 1.74874 1.34773 1.28478C1.78519 0.820828 2.38341 0.541577 3.01999 0.504167L3.16666 0.5H12.3333ZM14.8333 13H7.33332V13.8333C7.33332 14.125 7.28332 14.4058 7.19166 14.6667H14C14.221 14.6667 14.433 14.5789 14.5892 14.4226C14.7455 14.2663 14.8333 14.0543 14.8333 13.8333V13ZM8.99999 8H7.33332C7.12092 8.00024 6.91663 8.08157 6.76218 8.22737C6.60774 8.37318 6.51479 8.57246 6.50235 8.7845C6.4899 8.99653 6.55888 9.20532 6.69521 9.36819C6.83154 9.53107 7.02491 9.63575 7.23582 9.66083L7.33332 9.66667H8.99999C9.21239 9.66643 9.41668 9.5851 9.57113 9.43929C9.72558 9.29349 9.81852 9.09421 9.83097 8.88217C9.84341 8.67014 9.77443 8.46135 9.6381 8.29847C9.50178 8.1356 9.3084 8.03092 9.09749 8.00583L8.99999 8ZM10.6667 4.66667H7.33332C7.11231 4.66667 6.90035 4.75446 6.74407 4.91074C6.58779 5.06702 6.49999 5.27899 6.49999 5.5C6.49999 5.72101 6.58779 5.93297 6.74407 6.08926C6.90035 6.24554 7.11231 6.33333 7.33332 6.33333H10.6667C10.8877 6.33333 11.0996 6.24554 11.2559 6.08926C11.4122 5.93297 11.5 5.72101 11.5 5.5C11.5 5.27899 11.4122 5.06702 11.2559 4.91074C11.0996 4.75446 10.8877 4.66667 10.6667 4.66667ZM3.16666 2.16667C2.94564 2.16667 2.73368 2.25446 2.5774 2.41074C2.42112 2.56702 2.33332 2.77899 2.33332 3V3.83333H3.16666V2.16667Z" fill="#4A5A6A"/>
</svg>
