<svg width="20" height="21" viewBox="0 0 20 21" fill="none" xmlns="http://www.w3.org/2000/svg">
<path d="M12.425 1.33331H2.5V19.6666H17.5V6.40831L12.425 1.33331ZM12.5 9.24998C12.5 9.91302 12.2366 10.5489 11.7678 11.0177C11.2989 11.4866 10.663 11.75 10 11.75C9.33696 11.75 8.70107 11.4866 8.23223 11.0177C7.76339 10.5489 7.5 9.91302 7.5 9.24998C7.5 8.58694 7.76339 7.95105 8.23223 7.48221C8.70107 7.01337 9.33696 6.74998 10 6.74998C10.663 6.74998 11.2989 7.01337 11.7678 7.48221C12.2366 7.95105 12.5 8.58694 12.5 9.24998ZM5 16.3333C5 15.4493 5.35119 14.6014 5.97631 13.9763C6.60143 13.3512 7.44928 13 8.33333 13H11.6667C12.5507 13 13.3986 13.3512 14.0237 13.9763C14.6488 14.6014 15 15.4493 15 16.3333V17.1666H5V16.3333Z" fill="white"/>
</svg>
