<svg width="11" height="14" viewBox="0 0 11 14" fill="none" xmlns="http://www.w3.org/2000/svg">
<path d="M1.75 13.25C1.40625 13.25 1.11208 13.1277 0.8675 12.8831C0.622917 12.6385 0.500417 12.3442 0.5 12V5.75C0.5 5.40625 0.6225 5.11208 0.8675 4.8675C1.1125 4.62292 1.40667 4.50042 1.75 4.5H2.375V3.25C2.375 2.38542 2.67979 1.64854 3.28938 1.03938C3.89896 0.430209 4.63583 0.125417 5.5 0.125C6.36417 0.124584 7.10125 0.429375 7.71125 1.03938C8.32125 1.64938 8.62583 2.38625 8.625 3.25V4.5H9.25C9.59375 4.5 9.88813 4.6225 10.1331 4.8675C10.3781 5.1125 10.5004 5.40667 10.5 5.75V12C10.5 12.3438 10.3777 12.6381 10.1331 12.8831C9.88854 13.1281 9.59417 13.2504 9.25 13.25H1.75ZM5.5 10.125C5.84375 10.125 6.13812 10.0027 6.38313 9.75813C6.62813 9.51354 6.75042 9.21917 6.75 8.875C6.74958 8.53083 6.62729 8.23667 6.38313 7.9925C6.13896 7.74833 5.84458 7.62583 5.5 7.625C5.15542 7.62417 4.86125 7.74667 4.6175 7.9925C4.37375 8.23833 4.25125 8.5325 4.25 8.875C4.24875 9.2175 4.37125 9.51188 4.6175 9.75813C4.86375 10.0044 5.15792 10.1267 5.5 10.125ZM3.625 4.5H7.375V3.25C7.375 2.72917 7.19271 2.28646 6.82812 1.92188C6.46354 1.55729 6.02083 1.375 5.5 1.375C4.97917 1.375 4.53646 1.55729 4.17188 1.92188C3.80729 2.28646 3.625 2.72917 3.625 3.25V4.5Z" fill="#8C8C8C"/>
</svg>
