<svg width="15" height="16" viewBox="0 0 15 16" fill="none" xmlns="http://www.w3.org/2000/svg">
<path d="M1 8.33334C3.6 2.55555 11.4 2.55555 14 8.33334" stroke="#8C8C8C" stroke-width="1.5" stroke-linecap="round" stroke-linejoin="round"/>
<path d="M7.49992 11.2222C7.21539 11.2222 6.93364 11.1662 6.67077 11.0573C6.4079 10.9484 6.16905 10.7888 5.96785 10.5876C5.76666 10.3864 5.60706 10.1475 5.49818 9.88468C5.38929 9.6218 5.33325 9.34006 5.33325 9.05553C5.33325 8.771 5.38929 8.48925 5.49818 8.22638C5.60706 7.9635 5.76666 7.72465 5.96785 7.52346C6.16905 7.32226 6.4079 7.16267 6.67077 7.05378C6.93364 6.9449 7.21539 6.88885 7.49992 6.88885C8.07455 6.88885 8.62565 7.11713 9.03198 7.52346C9.43831 7.92979 9.66659 8.48089 9.66659 9.05553C9.66659 9.63016 9.43831 10.1813 9.03198 10.5876C8.62565 10.9939 8.07455 11.2222 7.49992 11.2222Z" fill="#8C8C8C" stroke="#8C8C8C" stroke-width="1.5" stroke-linecap="round" stroke-linejoin="round"/>
</svg>
