<svg width="15" height="16" viewBox="0 0 15 16" fill="none" xmlns="http://www.w3.org/2000/svg">
<path d="M7.5 8C6.8125 8 6.22396 7.75521 5.73438 7.26562C5.24479 6.77604 5 6.1875 5 5.5C5 4.8125 5.24479 4.22396 5.73438 3.73438C6.22396 3.24479 6.8125 3 7.5 3C8.1875 3 8.77604 3.24479 9.26562 3.73438C9.75521 4.22396 10 4.8125 10 5.5C10 6.1875 9.75521 6.77604 9.26562 7.26562C8.77604 7.75521 8.1875 8 7.5 8ZM2.5 11.75V11.25C2.5 10.8958 2.59125 10.5704 2.77375 10.2737C2.95625 9.97708 3.19833 9.75042 3.5 9.59375C4.14583 9.27083 4.80208 9.02875 5.46875 8.8675C6.13542 8.70625 6.8125 8.62542 7.5 8.625C8.1875 8.62458 8.86458 8.70542 9.53125 8.8675C10.1979 9.02958 10.8542 9.27167 11.5 9.59375C11.8021 9.75 12.0444 9.97667 12.2269 10.2737C12.4094 10.5708 12.5004 10.8963 12.5 11.25V11.75C12.5 12.0938 12.3777 12.3881 12.1331 12.6331C11.8885 12.8781 11.5942 13.0004 11.25 13H3.75C3.40625 13 3.11208 12.8777 2.8675 12.6331C2.62292 12.3885 2.50042 12.0942 2.5 11.75Z" fill="#8C8C8C"/>
</svg>
