<svg width="40" height="34" viewBox="0 0 40 34" fill="none" xmlns="http://www.w3.org/2000/svg">
<g clip-path="url(#clip0_53_613)">
<path d="M28.2464 33.4567H37.9291C37.9291 33.4567 39.4557 33.4567 39.4557 31.6104V21.0047C39.4557 21.0047 39.7664 18.6916 37.276 18.6916C34.7856 18.6916 26.0321 18.6916 26.0321 18.6916C26.0321 18.6916 24.1975 19.3079 24.1975 21.1516C24.1975 22.9953 24.1975 31.7127 24.1975 31.7127C24.1975 31.7127 24.4046 33.4567 22.432 33.4567C20.4593 33.4567 2.45585 33.4567 2.45585 33.4567C2.45585 33.4567 0.530991 33.4567 0.530991 31.6104C0.530991 29.7641 0.530991 11.8441 0.530991 11.8441C0.530991 11.8441 0.530991 10.0791 2.4001 10.0791C4.26921 10.0791 22.5249 10.0791 22.5249 10.0791C22.5249 10.0791 24.1975 10.0791 24.1975 11.9254C24.1975 13.7717 24.1975 16.2316 24.1975 16.2316" stroke="black" stroke-miterlimit="10" stroke-linecap="round" stroke-linejoin="round"/>
<path d="M31.7058 18.6916V2.54972C31.7058 2.54972 31.9819 0.543457 29.4916 0.543457C28.0419 0.543457 22.8568 0.543457 18.776 0.543457C15.8449 0.543457 13.482 0.543457 13.482 0.543457C13.482 0.543457 11.4297 0.543457 11.4297 2.38975C11.4297 4.23603 11.4297 7.38049 11.4297 7.38049" stroke="black" stroke-miterlimit="10" stroke-linecap="round" stroke-linejoin="round"/>
<path d="M34.5201 18.6917V22.8274C34.5201 22.8274 34.5626 25.0383 31.7138 23.5565C29.1358 24.9019 28.8676 23.3047 28.8676 23.3047V21.2303" stroke="black" stroke-miterlimit="10" stroke-linecap="round" stroke-linejoin="round"/>
<path d="M17.0344 10.386V14.6922C17.0344 14.6922 17.0344 18.9985 14.544 17.1522C13.705 17.5902 13.2218 18.377 12.6749 18.3822C12.2262 18.3874 11.5784 17.501 10.8058 17.1522C9.56059 18.9985 8.3154 17.1522 8.3154 16.5359C8.3154 15.9196 8.3154 13.4596 8.3154 13.4596" stroke="black" stroke-miterlimit="10" stroke-linecap="round" stroke-linejoin="round"/>
<path d="M24.4285 3.14509V5.21954C24.4285 5.21954 24.1604 6.81407 21.5824 5.47131C18.7362 6.95306 18.776 4.74224 18.776 4.74224V0.606445" stroke="black" stroke-miterlimit="10" stroke-linecap="round" stroke-linejoin="round"/>
<path d="M29.3402 31.3036H27.1525C27.0676 31.3036 27.0012 31.2354 27.0012 31.1541V28.9931C27.0012 28.9092 27.0702 28.8436 27.1525 28.8436H29.3402C29.4252 28.8436 29.4916 28.9118 29.4916 28.9931V31.1541C29.4916 31.2354 29.4225 31.3036 29.3402 31.3036Z" fill="black"/>
<path d="M8.93933 30.6872V27.611" stroke="black" stroke-miterlimit="10" stroke-linecap="round"/>
<path d="M5.20111 30.6872V26.381" stroke="black" stroke-miterlimit="10" stroke-linecap="round"/>
</g>
<defs>
<clipPath id="clip0_53_613">
<rect width="40" height="33.9623" fill="white" transform="translate(0 0.0189209)"/>
</clipPath>
</defs>
</svg>
