<svg id="Camada_2" data-name="Camada 2" xmlns="http://www.w3.org/2000/svg" viewBox="0 0 372 252"><defs><style>.cls-1,.cls-2,.cls-3{fill:none;stroke:#000;}.cls-1{stroke-miterlimit:10;}.cls-1,.cls-3{stroke-width:11px;}.cls-2,.cls-3{stroke-linecap:round;stroke-linejoin:round;}.cls-2{stroke-width:12px;}</style></defs><line class="cls-1" x1="95.5" y1="164.5" x2="89.5" y2="187.5"/><line class="cls-1" x1="132.5" y1="164.5" x2="138.5" y2="187.5"/><rect x="66" y="180" width="96" height="12" rx="5.94"/><rect x="66" y="186" width="12" height="12"/><rect x="150" y="186" width="12" height="12"/><path d="M429,339v30H81V339H429m0-12H81a12,12,0,0,0-12,12v30a12,12,0,0,0,12,12H429a12,12,0,0,0,12-12V339a12,12,0,0,0-12-12Z" transform="translate(-69 -129)"/><polyline class="cls-2" points="366 210 366 138.11 348 138 348 64 342 78 330 66 318 78 306 66 294 78 282 66 271 78 264 66 264 138 246 138 246 203"/><line class="cls-2" x1="246" y1="174.11" x2="366" y2="174.11"/><line class="cls-2" x1="348" y1="138" x2="348" y2="174.11"/><line class="cls-2" x1="264" y1="138" x2="264" y2="174.11"/><line class="cls-3" x1="281.67" y1="156.06" x2="331.11" y2="156.06"/><line class="cls-3" x1="281.67" y1="138.06" x2="331.11" y2="138.06"/><line class="cls-3" x1="281.67" y1="120.06" x2="331.11" y2="120.06"/><line class="cls-3" x1="281.67" y1="102.06" x2="331.11" y2="102.06"/><path d="M276.11,129H89.89A20.89,20.89,0,0,0,69,149.89V277.11A20.89,20.89,0,0,0,89.89,298H276.11A20.89,20.89,0,0,0,297,277.11V149.89A20.89,20.89,0,0,0,276.11,129ZM153.22,271a6.72,6.72,0,1,1,6.71-6.72A6.72,6.72,0,0,1,153.22,271Zm47.35-8.52a6.72,6.72,0,1,1,6.72-6.71A6.71,6.71,0,0,1,200.57,262.48ZM223,235.36a163.06,163.06,0,0,1-24.51,11c-21.22,7.44-49.84,14.07-56.69,7.22-6.07-7,.55-34.55,2.31-53.09.83-8.65,1.42-15-2.57-17.14-13.23-7.84-35.54.37-35.54.37s4.9-6.63,17.91-12c24.09-8.77,30.8,3.22,30.8,3.22,1.68,2.46,2.74,3.59,8.44,4.68s42.43-5.76,50.57-6.75c12.6-2.23,46.51-9,47.16,12.12S241.62,225.56,223,235.36Z" transform="translate(-69 -129)"/></svg>