<svg width="31" height="22" viewBox="0 0 31 22" fill="none" xmlns="http://www.w3.org/2000/svg">
<path d="M9.45504 21.0791C10.1972 21.0791 10.7988 20.4609 10.7988 19.6982C10.7988 18.9356 10.1972 18.3174 9.45504 18.3174C8.7129 18.3174 8.11128 18.9356 8.11128 19.6982C8.11128 20.4609 8.7129 21.0791 9.45504 21.0791Z" fill="#BD2019"/>
<path d="M18.9327 19.328C19.6749 19.328 20.2765 18.7098 20.2765 17.9472C20.2765 17.1846 19.6749 16.5663 18.9327 16.5663C18.1906 16.5663 17.589 17.1846 17.589 17.9472C17.589 18.7098 18.1906 19.328 18.9327 19.328Z" fill="#BD2019"/>
<path d="M0 3.13686C0 3.13686 4.46469 1.44839 7.11217 3.05995C7.91112 3.49638 7.79275 4.80566 7.62739 6.58357C7.27405 10.3969 5.94944 16.0544 7.16265 17.5014C8.53426 18.9109 14.2626 17.5479 18.5097 16.0169C21.2112 15.0438 23.2251 13.849 23.4148 13.7471C27.1467 11.7331 31.1258 7.73188 30.997 3.38548C30.8681 -0.960909 24.0815 0.434229 21.5593 0.89391C19.9301 1.09603 12.5812 2.50726 11.4394 2.28189C10.2975 2.05653 10.0834 1.82758 9.74747 1.32139C9.74747 1.32139 8.40719 -1.14335 3.58394 0.659598C0.979969 1.77213 0 3.13686 0 3.13686Z" fill="#BD2019"/>
</svg>
