<svg width="52" height="36" viewBox="0 0 52 36" fill="none" xmlns="http://www.w3.org/2000/svg">
<path d="M16.2502 30.0455C17.7362 30.0455 18.9182 31.2797 18.9182 32.773C18.9181 34.2662 17.7361 35.4996 16.2502 35.4996C14.7646 35.4993 13.5834 34.266 13.5833 32.773C13.5833 31.2799 14.7645 30.0457 16.2502 30.0455Z" fill="#FFC500" stroke="black" stroke-linejoin="round"/>
<path d="M31.5375 27.221C33.0234 27.221 34.2054 28.4552 34.2054 29.9485C34.2053 31.4417 33.0233 32.6751 31.5375 32.6751C30.0519 32.6749 28.8706 31.4416 28.8705 29.9485C28.8705 28.4554 30.0518 27.2213 31.5375 27.221Z" fill="#FFC500" stroke="black" stroke-linejoin="round"/>
<path d="M6.60547 1.5957C10.5812 0.109558 13.2023 0.354652 14.8613 1.0459C15.6859 1.38947 16.2532 1.83572 16.6182 2.2041C16.8002 2.38787 16.9316 2.55188 17.0195 2.67383C17.0634 2.73463 17.0968 2.78496 17.1201 2.82227C17.1318 2.84091 17.1416 2.85642 17.1484 2.86816C17.4078 3.25798 17.5796 3.47372 17.8643 3.65137C18.1686 3.84129 18.6411 4.01146 19.5479 4.19043C19.7096 4.22236 20.0395 4.23126 20.5459 4.20312C21.0366 4.17586 21.6497 4.11632 22.3506 4.0332C23.7515 3.86706 25.48 3.60808 27.2393 3.32617C30.7335 2.76624 34.3776 2.11083 35.707 1.94531C37.727 1.57669 41.533 0.819613 44.8672 1.04492C46.5401 1.15798 48.1589 1.52134 49.3848 2.35742C50.6405 3.21396 51.4406 4.53908 51.4971 6.44629C51.6055 10.1104 49.9831 13.5895 47.6074 16.541C45.2295 19.4952 42.0653 21.9616 39.0049 23.6133L39.0039 23.6143C38.7092 23.7727 35.4241 25.7203 31.0254 27.3047C27.5824 28.5459 23.5295 29.7231 20.0479 30.3037C18.3088 30.5937 16.6905 30.7392 15.3535 30.6611C14.0427 30.5846 12.8848 30.2876 12.1943 29.5781C12.1858 29.5694 12.1778 29.5601 12.1699 29.5508C11.5674 28.8321 11.3322 27.6758 11.2656 26.3838C11.1976 25.0637 11.3022 23.4804 11.4834 21.8018C11.6649 20.1207 11.9254 18.321 12.1748 16.5674C12.4249 14.8088 12.6635 13.0968 12.8047 11.5732C12.9395 10.1233 13.0483 8.92781 12.9727 8.00684C12.8966 7.08063 12.648 6.60113 12.2324 6.37402C12.2256 6.37028 12.2186 6.36636 12.2119 6.3623C10.2343 5.15853 7.51792 5.16563 5.20996 5.51758C4.06977 5.69145 3.058 5.94488 2.33105 6.15527C1.96801 6.26035 1.67663 6.35359 1.47754 6.4209C1.37823 6.45448 1.30196 6.4817 1.25098 6.5C1.22547 6.50916 1.2058 6.5169 1.19336 6.52148C1.18763 6.5236 1.18343 6.52533 1.18066 6.52637C1.17925 6.5269 1.17732 6.52713 1.17676 6.52734C0.970604 6.60526 0.737776 6.53902 0.603516 6.36426C0.469246 6.18939 0.465154 5.94666 0.59375 5.76758H0.594727V5.7666C0.595223 5.76592 0.596009 5.76459 0.59668 5.76367C0.59813 5.76168 0.600292 5.7589 0.602539 5.75586C0.607022 5.7498 0.613427 5.74152 0.621094 5.73145C0.636534 5.71116 0.65886 5.68294 0.6875 5.64746C0.745032 5.57621 0.829585 5.47532 0.943359 5.35059C1.17111 5.10091 1.51564 4.75455 1.99316 4.35254C2.94906 3.54784 4.43634 2.52211 6.58398 1.60449L6.60547 1.5957Z" fill="#FFC500" stroke="black" stroke-linejoin="round"/>
</svg>
