<svg width="32" height="23" viewBox="0 0 32 23" fill="none" xmlns="http://www.w3.org/2000/svg">
<g clip-path="url(#clip0_2_10)">
<path d="M9.76004 21.7591C10.5261 21.7591 11.1472 21.1209 11.1472 20.3336C11.1472 19.5464 10.5261 18.9083 9.76004 18.9083C8.99396 18.9083 8.37294 19.5464 8.37294 20.3336C8.37294 21.1209 8.99396 21.7591 9.76004 21.7591Z" fill="#25292E"/>
<path d="M19.5434 19.9515C20.3096 19.9515 20.9306 19.3133 20.9306 18.5261C20.9306 17.7389 20.3096 17.1007 19.5434 17.1007C18.7774 17.1007 18.1564 17.7389 18.1564 18.5261C18.1564 19.3133 18.7774 19.9515 19.5434 19.9515Z" fill="#25292E"/>
<path d="M0 3.23805C0 3.23805 4.60871 1.49511 7.3416 3.15865C8.16632 3.60916 8.04413 4.96068 7.87344 6.79594C7.5087 10.7323 6.14136 16.5723 7.3937 18.066C8.80956 19.5209 14.7227 18.114 19.1068 16.5336C21.8954 15.5291 23.9743 14.2957 24.1701 14.1906C28.0224 12.1116 32.1299 7.98129 31.9969 3.49469C31.8638 -0.991909 24.8583 0.448233 22.2548 0.922742C20.573 1.13138 12.987 2.58814 11.8084 2.3555C10.6297 2.12287 10.4087 1.88653 10.0619 1.36401C10.0619 1.36401 8.67839 -1.18024 3.69955 0.680872C1.01158 1.82929 0 3.23805 0 3.23805Z" fill="#25292E"/>
</g>
<defs>
<clipPath id="clip0_2_10">
<rect width="32" height="22.7097" fill="white"/>
</clipPath>
</defs>
</svg>
