<svg width="40" height="40" viewBox="0 0 40 40" fill="none" xmlns="http://www.w3.org/2000/svg">
<path d="M25.4815 24.4615C25.2369 24.3815 23.6908 23.6846 24.6569 20.7477H24.6431C27.1615 18.1538 29.0862 13.98 29.0862 9.87076C29.0862 3.5523 24.8846 0.23999 20.0015 0.23999C15.1154 0.23999 10.9369 3.55076 10.9369 9.87076C10.9369 13.9969 12.8508 18.1877 15.3846 20.7754C16.3723 23.3661 14.6062 24.3277 14.2369 24.4615C9.12308 26.3123 3.12308 29.6831 3.12308 33.0108V34.2585C3.12308 38.7923 11.9138 39.8231 20.0492 39.8231C28.1969 39.8231 36.8769 38.7923 36.8769 34.2585V33.0108C36.8769 29.5831 30.8477 26.2385 25.4815 24.4615ZM16.9954 37.86C16.9954 33.9385 19.4923 28.6446 19.4923 28.6446L17.7646 27.2892C17.7646 25.9938 20 24.6385 20 24.6385C20 24.6385 22.2292 26.0154 22.2292 27.2892L20.5077 28.6446C20.5077 28.6446 23.0046 33.9185 23.0046 37.9031C23.0046 38.5277 16.9954 38.3831 16.9954 37.86Z" fill="black"/>
</svg>
