<svg width="20" height="21" viewBox="0 0 20 21" fill="none" xmlns="http://www.w3.org/2000/svg">
<path fill-rule="evenodd" clip-rule="evenodd" d="M4.42667 9.40583C6.85833 5.09333 8.07417 2.9375 10 2.9375C11.9258 2.9375 13.1417 5.09333 15.5733 9.40583L15.8767 9.9425C17.8975 13.5258 18.9083 15.3175 17.995 16.6275C17.0817 17.9375 14.8217 17.9375 10.3033 17.9375H9.69667C5.17833 17.9375 2.91833 17.9375 2.005 16.6275C1.09167 15.3175 2.1025 13.5258 4.12333 9.9425L4.42667 9.40583ZM10 6.47917C10.1658 6.47917 10.3247 6.54501 10.4419 6.66222C10.5592 6.77943 10.625 6.93841 10.625 7.10417V11.2708C10.625 11.4366 10.5592 11.5956 10.4419 11.7128C10.3247 11.83 10.1658 11.8958 10 11.8958C9.83424 11.8958 9.67527 11.83 9.55806 11.7128C9.44085 11.5956 9.375 11.4366 9.375 11.2708V7.10417C9.375 6.93841 9.44085 6.77943 9.55806 6.66222C9.67527 6.54501 9.83424 6.47917 10 6.47917ZM10 14.6042C10.221 14.6042 10.433 14.5164 10.5893 14.3601C10.7455 14.2038 10.8333 13.9918 10.8333 13.7708C10.8333 13.5498 10.7455 13.3379 10.5893 13.1816C10.433 13.0253 10.221 12.9375 10 12.9375C9.77899 12.9375 9.56702 13.0253 9.41074 13.1816C9.25446 13.3379 9.16667 13.5498 9.16667 13.7708C9.16667 13.9918 9.25446 14.2038 9.41074 14.3601C9.56702 14.5164 9.77899 14.6042 10 14.6042Z" fill="#4A5A6A"/>
</svg>
