<svg width="20" height="21" viewBox="0 0 20 21" fill="none" xmlns="http://www.w3.org/2000/svg">
<path d="M13.8142 7.16752L5.54833 4.41168C5.29833 4.32835 5.17333 4.28668 5.08667 4.34918C5 4.41168 5 4.54335 5 4.80752V10.8959L13.8142 7.95752C14.3042 7.79418 14.5492 7.71252 14.5492 7.56252C14.5492 7.41252 14.3042 7.33085 13.8142 7.16752Z" fill="#4A5A6A"/>
<path d="M5 10.8959V4.80752C5 4.54335 5 4.41168 5.08667 4.34918C5.17333 4.28668 5.29833 4.32835 5.54833 4.41168L13.8142 7.16752C14.3042 7.33085 14.5492 7.41252 14.5492 7.56252C14.5492 7.71252 14.3042 7.79418 13.8142 7.95752L5 10.8959ZM5 10.8959V15.8959" stroke="#4A5A6A" stroke-width="1.66667" stroke-linecap="round"/>
</svg>
