<svg width="35" height="36" viewBox="0 0 35 36" fill="none" xmlns="http://www.w3.org/2000/svg">
<path d="M24.1667 11.3333V10.5H25V11.3333H24.1667ZM16.4225 20.2558C16.2653 20.4076 16.0548 20.4916 15.8363 20.4897C15.6178 20.4878 15.4088 20.4002 15.2543 20.2457C15.0998 20.0912 15.0122 19.8822 15.0103 19.6637C15.0084 19.4452 15.0924 19.2347 15.2442 19.0775L16.4225 20.2558ZM23.3333 18V11.3333H25V18H23.3333ZM24.1667 12.1667H17.5V10.5H24.1667V12.1667ZM24.7558 11.9225L16.4225 20.2558L15.2442 19.0775L23.5775 10.7442L24.7558 11.9225Z" fill="#F9FAFB"/>
<path d="M23.3333 21.3333C23.3333 22.8916 23.3333 23.67 22.9983 24.25C22.7789 24.63 22.4634 24.9455 22.0833 25.165C21.5033 25.5 20.725 25.5 19.1667 25.5H15C12.6433 25.5 11.4642 25.5 10.7325 24.7675C10 24.0358 10 22.8566 10 20.5V16.3333C10 14.775 10 13.9966 10.335 13.4166C10.5544 13.0366 10.87 12.721 11.25 12.5016C11.83 12.1666 12.6083 12.1666 14.1667 12.1666" stroke="#F9FAFB" stroke-width="1.66667" stroke-linecap="round"/>
</svg>
