<svg width="35" height="36" viewBox="0 0 35 36" fill="none" xmlns="http://www.w3.org/2000/svg">
<path d="M24.1667 11.1458V10.3125H25V11.1458H24.1667ZM16.4225 20.0683C16.2653 20.2201 16.0548 20.3041 15.8363 20.3022C15.6178 20.3003 15.4088 20.2127 15.2543 20.0582C15.0998 19.9037 15.0122 19.6947 15.0103 19.4762C15.0084 19.2577 15.0924 19.0472 15.2442 18.89L16.4225 20.0683ZM23.3333 17.8125V11.1458H25V17.8125H23.3333ZM24.1667 11.9792H17.5V10.3125H24.1667V11.9792ZM24.7558 11.735L16.4225 20.0683L15.2442 18.89L23.5775 10.5567L24.7558 11.735Z" fill="#4A5A6A"/>
<path d="M23.3333 21.1459C23.3333 22.7042 23.3333 23.4826 22.9983 24.0626C22.7789 24.4426 22.4634 24.7582 22.0833 24.9776C21.5033 25.3126 20.725 25.3126 19.1667 25.3126H15C12.6433 25.3126 11.4642 25.3126 10.7325 24.5801C10 23.8484 10 22.6692 10 20.3126V16.1459C10 14.5876 10 13.8092 10.335 13.2292C10.5544 12.8492 10.87 12.5337 11.25 12.3142C11.83 11.9792 12.6083 11.9792 14.1667 11.9792" stroke="#4A5A6A" stroke-width="1.66667" stroke-linecap="round"/>
</svg>
