<svg width="20" height="20" viewBox="0 0 20 20" fill="none" xmlns="http://www.w3.org/2000/svg">
<path fill-rule="evenodd" clip-rule="evenodd" d="M15 3.33333C15 3.11232 14.9122 2.90036 14.7559 2.74408C14.5996 2.5878 14.3877 2.5 14.1667 2.5C13.9457 2.5 13.7337 2.5878 13.5774 2.74408C13.4211 2.90036 13.3333 3.11232 13.3333 3.33333V4.16667H3.33333C3.11232 4.16667 2.90036 4.25446 2.74408 4.41074C2.5878 4.56702 2.5 4.77899 2.5 5C2.5 5.22101 2.5878 5.43298 2.74408 5.58926C2.90036 5.74554 3.11232 5.83333 3.33333 5.83333H13.3333V6.66667C13.3333 6.88768 13.4211 7.09964 13.5774 7.25592C13.7337 7.4122 13.9457 7.5 14.1667 7.5C14.3877 7.5 14.5996 7.4122 14.7559 7.25592C14.9122 7.09964 15 6.88768 15 6.66667V5.83333H16.6667C16.8877 5.83333 17.0996 5.74554 17.2559 5.58926C17.4122 5.43298 17.5 5.22101 17.5 5C17.5 4.77899 17.4122 4.56702 17.2559 4.41074C17.0996 4.25446 16.8877 4.16667 16.6667 4.16667H15V3.33333ZM3.33333 9.16667C3.11232 9.16667 2.90036 9.25446 2.74408 9.41074C2.5878 9.56702 2.5 9.77899 2.5 10C2.5 10.221 2.5878 10.433 2.74408 10.5893C2.90036 10.7455 3.11232 10.8333 3.33333 10.8333H5V11.6667C5 11.8877 5.0878 12.0996 5.24408 12.2559C5.40036 12.4122 5.61232 12.5 5.83333 12.5C6.05435 12.5 6.26631 12.4122 6.42259 12.2559C6.57887 12.0996 6.66667 11.8877 6.66667 11.6667V10.8333H16.6667C16.8877 10.8333 17.0996 10.7455 17.2559 10.5893C17.4122 10.433 17.5 10.221 17.5 10C17.5 9.77899 17.4122 9.56702 17.2559 9.41074C17.0996 9.25446 16.8877 9.16667 16.6667 9.16667H6.66667V8.33333C6.66667 8.11232 6.57887 7.90036 6.42259 7.74408C6.26631 7.5878 6.05435 7.5 5.83333 7.5C5.61232 7.5 5.40036 7.5878 5.24408 7.74408C5.0878 7.90036 5 8.11232 5 8.33333V9.16667H3.33333ZM2.5 15C2.5 14.779 2.5878 14.567 2.74408 14.4107C2.90036 14.2545 3.11232 14.1667 3.33333 14.1667H13.3333V13.3333C13.3333 13.1123 13.4211 12.9004 13.5774 12.7441C13.7337 12.5878 13.9457 12.5 14.1667 12.5C14.3877 12.5 14.5996 12.5878 14.7559 12.7441C14.9122 12.9004 15 13.1123 15 13.3333V14.1667H16.6667C16.8877 14.1667 17.0996 14.2545 17.2559 14.4107C17.4122 14.567 17.5 14.779 17.5 15C17.5 15.221 17.4122 15.433 17.2559 15.5893C17.0996 15.7455 16.8877 15.8333 16.6667 15.8333H15V16.6667C15 16.8877 14.9122 17.0996 14.7559 17.2559C14.5996 17.4122 14.3877 17.5 14.1667 17.5C13.9457 17.5 13.7337 17.4122 13.5774 17.2559C13.4211 17.0996 13.3333 16.8877 13.3333 16.6667V15.8333H3.33333C3.11232 15.8333 2.90036 15.7455 2.74408 15.5893C2.5878 15.433 2.5 15.221 2.5 15Z" fill="#4A5A6A"/>
</svg>
