<svg width="20" height="21" viewBox="0 0 20 21" fill="none" xmlns="http://www.w3.org/2000/svg">
<path fill-rule="evenodd" clip-rule="evenodd" d="M1.76917 11.4925C2.00833 12.3283 2.6525 12.9716 3.94 14.2591L5.465 15.7841C7.70667 18.0266 8.82667 19.1458 10.2183 19.1458C11.6108 19.1458 12.7308 18.0258 14.9717 15.785C17.2133 13.5433 18.3333 12.4233 18.3333 11.0308C18.3333 9.63914 17.2133 8.5183 14.9725 6.27747L13.4475 4.75247C12.1592 3.46497 11.5158 2.8208 10.68 2.58164C9.84417 2.34164 8.95667 2.54664 7.1825 2.95664L6.15917 3.19247C4.66583 3.53664 3.91917 3.70914 3.4075 4.21997C2.89583 4.7308 2.725 5.47914 2.38 6.97164L2.14333 7.99497C1.73417 9.76997 1.53 10.6566 1.76917 11.4925ZM8.435 6.87164C8.59573 7.02664 8.72396 7.21212 8.81221 7.41723C8.90046 7.62235 8.94695 7.84299 8.94898 8.06628C8.951 8.28957 8.90851 8.51102 8.824 8.7177C8.73948 8.92438 8.61463 9.11215 8.45674 9.27004C8.29885 9.42794 8.11108 9.55279 7.9044 9.6373C7.69771 9.72182 7.47626 9.7643 7.25298 9.76228C7.02969 9.76026 6.80905 9.71376 6.60393 9.62551C6.39882 9.53727 6.21334 9.40903 6.05833 9.2483C5.75255 8.93122 5.58346 8.50677 5.58745 8.06628C5.59144 7.62579 5.7682 7.20447 6.07968 6.89299C6.39117 6.5815 6.81249 6.40475 7.25298 6.40075C7.69347 6.39676 8.11792 6.56585 8.435 6.87164ZM15.875 10.855L10.0592 16.6716C9.94124 16.7854 9.78333 16.8484 9.61946 16.8469C9.45558 16.8454 9.29886 16.7795 9.18303 16.6636C9.0672 16.5477 9.00155 16.3909 9.0002 16.227C8.99886 16.0631 9.06193 15.9053 9.17583 15.7875L14.9908 9.9708C15.1081 9.85356 15.2671 9.78769 15.4329 9.78769C15.5987 9.78769 15.7578 9.85356 15.875 9.9708C15.9922 10.0881 16.0581 10.2471 16.0581 10.4129C16.0581 10.5787 15.9922 10.7377 15.875 10.855Z" fill="#4A5A6A"/>
</svg>
