<svg width="20" height="21" viewBox="0 0 20 21" fill="none" xmlns="http://www.w3.org/2000/svg">
<path d="M10 2.35425C10.3128 2.35425 10.6211 2.37119 10.925 2.40508C11.0338 2.41712 11.1391 2.45046 11.235 2.50321C11.3309 2.55596 11.4155 2.62708 11.4839 2.71251C11.5523 2.79794 11.6032 2.89601 11.6337 3.00111C11.6642 3.10622 11.6737 3.2163 11.6617 3.32508C11.6496 3.43386 11.6163 3.5392 11.5635 3.63509C11.5108 3.73098 11.4397 3.81555 11.3542 3.88395C11.2688 3.95236 11.1707 4.00327 11.0656 4.03377C10.9605 4.06428 10.8504 4.07379 10.7417 4.06175C9.36837 3.90812 7.98127 4.18503 6.77223 4.85418C5.56319 5.52334 4.59196 6.55166 3.99289 7.79691C3.39381 9.04216 3.1965 10.4428 3.42824 11.8051C3.65998 13.1674 4.30932 14.424 5.28645 15.4011C6.26357 16.3783 7.52019 17.0276 8.88248 17.2593C10.2448 17.4911 11.6454 17.2938 12.8907 16.6947C14.1359 16.0956 15.1642 15.1244 15.8334 13.9154C16.5025 12.7063 16.7795 11.3192 16.6258 9.94591C16.6138 9.83714 16.6233 9.72705 16.6538 9.62195C16.6843 9.51684 16.7352 9.41878 16.8036 9.33335C16.9418 9.16081 17.1428 9.05023 17.3625 9.02591C17.5822 9.0016 17.8025 9.06556 17.9751 9.20371C18.0605 9.27212 18.1316 9.35668 18.1844 9.45257C18.2371 9.54846 18.2705 9.6538 18.2825 9.76258C18.3158 10.0665 18.3328 10.3748 18.3333 10.6876C18.3333 15.2901 14.6025 19.0209 10 19.0209C5.3975 19.0209 1.66667 15.2901 1.66667 10.6876C1.66667 6.08508 5.3975 2.35425 10 2.35425ZM9.97333 7.25175C10.0283 7.46568 9.99599 7.69267 9.88365 7.88284C9.7713 8.073 9.58805 8.21079 9.37417 8.26591C8.78656 8.41984 8.27503 8.78231 7.93503 9.28567C7.59503 9.78904 7.44979 10.3989 7.52642 11.0015C7.60304 11.6041 7.89629 12.1582 8.35145 12.5605C8.8066 12.9627 9.39257 13.1856 10 13.1876C10.5544 13.1878 11.0932 13.0037 11.5316 12.6643C11.9699 12.3249 12.2831 11.8494 12.4217 11.3126C12.4807 11.1029 12.6196 10.9246 12.8085 10.8161C12.9973 10.7075 13.2212 10.6772 13.4322 10.7317C13.6431 10.7861 13.8243 10.9211 13.937 11.1075C14.0497 11.294 14.0849 11.5172 14.035 11.7292C13.7794 12.7092 13.1757 13.5625 12.3368 14.1299C11.4979 14.6972 10.4811 14.9398 9.47647 14.8122C8.4718 14.6846 7.54795 14.1956 6.8775 13.4365C6.20706 12.6775 5.83589 11.7003 5.83333 10.6876C5.83319 9.76374 6.14008 8.86605 6.70576 8.13564C7.27144 7.40524 8.06383 6.88354 8.95833 6.65258C9.06432 6.62526 9.17465 6.61909 9.28303 6.63442C9.3914 6.64975 9.49569 6.68628 9.58995 6.74192C9.6842 6.79755 9.76657 6.87122 9.83235 6.9587C9.89814 7.04617 9.94604 7.14575 9.97333 7.25175ZM15.42 2.46008C15.5721 2.52315 15.7021 2.62986 15.7936 2.76676C15.8851 2.90365 15.934 3.06459 15.9342 3.22925V4.75425H17.4583C17.6231 4.75428 17.7842 4.80318 17.9212 4.89475C18.0582 4.98632 18.165 5.11645 18.2281 5.2687C18.2911 5.42095 18.3076 5.58848 18.2755 5.75011C18.2433 5.91174 18.164 6.0602 18.0475 6.17675L15.1 9.12091C14.9438 9.27721 14.7318 9.36503 14.5108 9.36508H12.5L10.9767 10.8892C10.8203 11.0456 10.6082 11.1335 10.3871 11.1335C10.1659 11.1335 9.95387 11.0456 9.7975 10.8892C9.64113 10.7329 9.55329 10.5208 9.55329 10.2997C9.55329 10.0785 9.64113 9.86645 9.7975 9.71008L11.3217 8.18758V6.17591C11.3217 5.95492 11.4095 5.74299 11.5658 5.58675L14.5117 2.64008C14.6282 2.52347 14.7767 2.44405 14.9384 2.41186C15.1001 2.37967 15.2677 2.39616 15.42 2.45925M14.2675 5.24008L12.9883 6.52091V7.69925H14.1667L15.4467 6.42008H15.1008C14.8798 6.42008 14.6679 6.33228 14.5116 6.176C14.3553 6.01972 14.2675 5.80776 14.2675 5.58675V5.24008Z" fill="#4A5A6A"/>
</svg>
