<svg width="400" height="310" viewBox="0 0 400 310" fill="none" xmlns="http://www.w3.org/2000/svg">
<g clip-path="url(#clip0_41_1085)">
<path d="M188.809 126.649C188.809 126.649 193.996 165.666 186.016 170.048C178.037 174.43 233.493 174.826 233.493 174.826C233.493 174.826 221.126 140.982 226.711 130.629L188.809 126.649Z" fill="#ED9DA0"/>
<path d="M211.152 147.759C226.355 147.759 238.68 135.459 238.68 120.286C238.68 105.114 226.355 92.8137 211.152 92.8137C195.948 92.8137 183.623 105.114 183.623 120.286C183.623 135.459 195.948 147.759 211.152 147.759Z" fill="#ED9DA0"/>
<path d="M273.989 175.023L269.377 195.983L259.626 240.325L259.334 242.754L255.969 270.867L253.729 289.543L252.229 302.088C243.102 306.769 236.487 310.001 236.487 310.001C236.487 310.001 235.918 307.157 235.001 303.514C228.596 305.43 216.744 308.609 206.698 309.244C210.355 313.313 153.869 209.823 151.701 195.985C149.956 184.848 148.646 175.437 148.369 173.435C148.332 173.173 148.313 173.038 148.313 173.038L190.402 154.478C193.394 161.401 207.361 163.482 207.361 163.482C218.932 162.686 228.003 156.595 228.003 156.595L273.989 175.023Z" fill="white"/>
<path d="M303.912 271.378C301.108 274.412 294.161 278.981 285.737 283.927C282.603 285.765 279.268 287.66 275.865 289.542C267.745 294.037 259.244 298.49 252.228 302.088C243.101 306.769 236.486 310.001 236.486 310.001C236.486 310.001 235.917 307.156 235 303.513C233.772 298.637 231.923 292.335 229.995 289.544C229.928 289.447 229.861 289.358 229.795 289.268C229.233 288.532 228.668 288.102 228.11 288.102L255.967 270.866L268.007 263.417L259.333 242.753L248.454 216.833L255.02 195.983L261.621 175.023H273.99C273.99 175.023 278.085 183.944 283.323 196.385C284.105 198.246 284.914 200.185 285.738 202.187C296.51 228.339 309.944 264.857 303.912 271.378Z" fill="white"/>
<path d="M179.434 289.296C178.418 289.292 177.403 289.374 176.401 289.542C167.795 291.018 165.257 298.793 164.534 304.001C164.303 305.591 164.215 307.199 164.272 308.805L156.671 302.969L153.901 300.843C147.234 298.523 141.292 294.403 136.141 289.542C131.673 285.251 127.664 280.507 124.181 275.386C120.711 270.34 117.618 265.045 114.927 259.546C114.176 258.011 113.772 256.331 113.744 254.623C113.716 252.916 114.065 251.223 114.766 249.665L124.181 228.725L137.942 198.119C138.042 197.391 138.153 196.679 138.275 195.983C141.004 180.366 148.315 173.432 148.315 173.432H153.898L157.634 195.983L162.276 223.999L159.022 234.587L151.505 259.04L158.689 266.825L179.434 289.296Z" fill="white"/>
<path d="M294.608 302.022V304.29C294.609 304.912 294.494 305.529 294.268 306.109C294.167 306.368 294.046 306.618 293.904 306.858C293.458 307.605 292.825 308.224 292.067 308.653C291.309 309.083 290.452 309.309 289.581 309.308H122.412C121.541 309.309 120.684 309.083 119.926 308.654C119.168 308.224 118.535 307.605 118.088 306.858C117.947 306.618 117.826 306.368 117.725 306.109C117.499 305.529 117.383 304.912 117.385 304.29V302.022C117.385 301.363 117.514 300.71 117.767 300.102C118.02 299.493 118.39 298.94 118.857 298.474C119.324 298.008 119.878 297.638 120.488 297.386C121.098 297.134 121.752 297.004 122.412 297.005H132.049V295.947C132.049 295.892 132.071 295.838 132.111 295.799C132.15 295.76 132.203 295.738 132.259 295.738H137.286C137.314 295.738 137.341 295.743 137.367 295.754C137.392 295.764 137.415 295.78 137.435 295.799C137.454 295.819 137.47 295.842 137.48 295.867C137.491 295.892 137.496 295.92 137.496 295.947V297.005H140.637V295.947C140.637 295.892 140.659 295.838 140.698 295.799C140.737 295.76 140.791 295.738 140.846 295.738H145.873C145.901 295.738 145.928 295.743 145.954 295.754C145.979 295.764 146.002 295.78 146.022 295.799C146.041 295.819 146.057 295.842 146.067 295.867C146.078 295.892 146.083 295.92 146.083 295.947V297.005H149.227V295.947C149.227 295.892 149.249 295.838 149.289 295.799C149.328 295.76 149.381 295.738 149.437 295.738H154.464C154.492 295.738 154.519 295.743 154.545 295.754C154.57 295.764 154.593 295.78 154.613 295.799C154.632 295.819 154.648 295.842 154.658 295.867C154.669 295.892 154.674 295.92 154.674 295.947V297.005H157.815V295.947C157.815 295.892 157.837 295.838 157.876 295.799C157.915 295.76 157.969 295.738 158.024 295.738H163.052C163.079 295.738 163.107 295.743 163.132 295.754C163.157 295.764 163.181 295.78 163.2 295.799C163.22 295.819 163.235 295.842 163.245 295.867C163.256 295.892 163.261 295.92 163.261 295.947V297.005H166.402V295.947C166.402 295.92 166.407 295.892 166.418 295.867C166.428 295.842 166.444 295.819 166.463 295.799C166.483 295.78 166.506 295.764 166.531 295.754C166.557 295.743 166.584 295.738 166.612 295.738H171.639C171.667 295.738 171.694 295.743 171.719 295.754C171.745 295.764 171.768 295.78 171.787 295.799C171.807 295.819 171.822 295.842 171.833 295.867C171.843 295.892 171.849 295.92 171.849 295.947V297.005H174.994V295.947C174.993 295.92 174.999 295.892 175.009 295.867C175.02 295.842 175.035 295.819 175.055 295.799C175.074 295.78 175.097 295.764 175.123 295.754C175.148 295.743 175.176 295.738 175.203 295.738H180.232C180.26 295.738 180.287 295.743 180.312 295.754C180.338 295.764 180.361 295.78 180.38 295.799C180.4 295.819 180.415 295.842 180.426 295.867C180.436 295.892 180.442 295.92 180.442 295.947V297.005H183.582V295.947C183.582 295.92 183.588 295.892 183.598 295.867C183.609 295.842 183.624 295.819 183.644 295.799C183.663 295.78 183.686 295.764 183.712 295.754C183.737 295.743 183.764 295.738 183.792 295.738H223.174C223.202 295.738 223.229 295.743 223.255 295.754C223.28 295.764 223.303 295.78 223.323 295.799C223.342 295.819 223.357 295.842 223.368 295.867C223.379 295.892 223.384 295.92 223.384 295.947V297.005H226.529V295.947C226.529 295.892 226.551 295.838 226.59 295.799C226.629 295.76 226.683 295.738 226.738 295.738H231.766C231.821 295.739 231.874 295.761 231.913 295.8C231.952 295.839 231.975 295.892 231.975 295.947V297.005H235.116V295.947C235.116 295.92 235.121 295.892 235.132 295.867C235.142 295.842 235.158 295.819 235.177 295.799C235.197 295.78 235.22 295.764 235.245 295.754C235.271 295.743 235.298 295.738 235.326 295.738H240.354C240.381 295.738 240.408 295.743 240.434 295.754C240.459 295.764 240.482 295.78 240.502 295.799C240.521 295.819 240.537 295.842 240.547 295.867C240.558 295.892 240.563 295.92 240.563 295.947V297.005H243.704V295.947C243.704 295.92 243.709 295.892 243.72 295.867C243.73 295.842 243.746 295.819 243.765 295.799C243.785 295.78 243.808 295.764 243.833 295.754C243.859 295.743 243.886 295.738 243.914 295.738H248.941C248.969 295.738 248.996 295.743 249.021 295.754C249.047 295.764 249.07 295.78 249.089 295.799C249.109 295.819 249.124 295.842 249.135 295.867C249.145 295.892 249.151 295.92 249.151 295.947V297.005H252.295V295.947C252.295 295.92 252.301 295.892 252.311 295.867C252.322 295.842 252.337 295.819 252.357 295.799C252.376 295.78 252.399 295.764 252.425 295.754C252.45 295.743 252.477 295.738 252.505 295.738H257.536C257.591 295.739 257.643 295.761 257.682 295.8C257.72 295.839 257.742 295.892 257.742 295.947V297.005H260.886V295.947C260.886 295.92 260.891 295.892 260.902 295.867C260.912 295.842 260.928 295.819 260.947 295.799C260.967 295.78 260.99 295.764 261.015 295.754C261.041 295.743 261.068 295.738 261.095 295.738H266.123C266.179 295.738 266.232 295.76 266.271 295.799C266.31 295.838 266.332 295.892 266.332 295.947V297.005H269.473V295.947C269.473 295.92 269.479 295.892 269.489 295.867C269.5 295.842 269.515 295.819 269.535 295.799C269.554 295.78 269.577 295.764 269.603 295.754C269.628 295.743 269.655 295.738 269.683 295.738H274.71C274.738 295.738 274.765 295.743 274.791 295.754C274.816 295.764 274.839 295.78 274.859 295.799C274.878 295.819 274.894 295.842 274.904 295.867C274.915 295.892 274.92 295.92 274.92 295.947V297.005H289.584C290.244 297.004 290.898 297.134 291.508 297.386C292.118 297.638 292.672 298.008 293.139 298.474C293.606 298.94 293.976 299.493 294.229 300.102C294.481 300.71 294.611 301.363 294.611 302.022H294.608Z" fill="#090814"/>
<path d="M343.219 309.252H68.8151V310H343.219V309.252Z" fill="#CCCCCC"/>
<path d="M281.148 206.52H218.841V205.238H190.588V206.52H128.019C126.902 206.52 125.83 206.963 125.04 207.751C124.25 208.54 123.805 209.609 123.805 210.724V295.873C123.805 296.988 124.249 298.058 125.039 298.847C125.83 299.636 126.902 300.079 128.02 300.079H281.148C282.266 300.079 283.338 299.636 284.128 298.847C284.919 298.058 285.363 296.988 285.363 295.873V210.724C285.363 209.609 284.919 208.539 284.128 207.75C283.338 206.961 282.266 206.518 281.148 206.518V206.52Z" fill="#090814"/>
<path d="M185.857 109.801L183.913 129.591C183.913 129.591 163.511 90.0889 188.883 82.784C188.883 82.784 186.412 79.4454 189.997 78.3346C193.583 77.2237 227.574 71.897 230.284 88.505C230.284 88.505 248.041 99.4883 242.667 111.239L236.335 125.057L230.602 125.374C230.602 125.374 230.441 99.0751 221.685 99.9489C212.93 100.823 185.857 109.801 185.857 109.801Z" fill="#090814"/>
<path d="M388.354 101.342L289.361 85.716C289.006 85.6596 288.688 85.465 288.477 85.1749C288.266 84.8848 288.179 84.5229 288.235 84.1685L297.965 22.9451L399.635 38.9935L389.906 100.217C389.849 100.571 389.654 100.889 389.363 101.1C389.072 101.31 388.71 101.398 388.355 101.342L388.354 101.342Z" fill="#E6E6E6"/>
<path d="M386.061 97.0586L292.87 82.3485C292.512 82.2915 292.191 82.0948 291.977 81.8016C291.764 81.5083 291.676 81.1425 291.732 80.7843L299.745 30.3627C299.802 30.0046 300 29.6836 300.293 29.4704C300.587 29.2571 300.954 29.1689 301.313 29.2252L394.503 43.9353C394.862 43.9923 395.183 44.1891 395.397 44.4824C395.61 44.7758 395.698 45.1417 395.642 45.5L387.628 95.9216C387.571 96.2797 387.374 96.6007 387.08 96.8139C386.786 97.0272 386.42 97.1149 386.061 97.0586Z" fill="white"/>
<path d="M399.291 40.901L297.604 24.8346L298.101 21.704C298.158 21.3494 298.353 21.0316 298.644 20.8205C298.934 20.6093 299.297 20.522 299.652 20.5777L398.661 36.221C399.016 36.2775 399.334 36.4723 399.545 36.7627C399.756 37.0532 399.843 37.4155 399.787 37.7703L399.291 40.901Z" fill="white"/>
<path d="M301.108 23.9627C301.549 24.0324 301.964 23.7315 302.034 23.2907C302.104 22.8498 301.803 22.436 301.362 22.3663C300.92 22.2966 300.505 22.5975 300.435 23.0383C300.365 23.4792 300.666 23.893 301.108 23.9627Z" fill="white"/>
<path d="M304.142 24.4424C304.584 24.5121 304.999 24.2113 305.069 23.7704C305.139 23.3296 304.838 22.9157 304.396 22.846C303.955 22.7763 303.54 23.0772 303.47 23.5181C303.4 23.9589 303.701 24.3728 304.142 24.4424Z" fill="white"/>
<path d="M307.176 24.9219C307.618 24.9916 308.033 24.6907 308.103 24.2499C308.173 23.8091 307.872 23.3952 307.43 23.3255C306.989 23.2558 306.574 23.5567 306.504 23.9975C306.434 24.4384 306.735 24.8522 307.176 24.9219Z" fill="white"/>
<path d="M317.696 41.0794L308.091 39.5631L307.417 43.8086L317.022 45.3248L317.696 41.0794Z" fill="#E6E6E6"/>
<path d="M335.512 52.9172L325.907 51.401L325.233 55.6465L334.838 57.1627L335.512 52.9172Z" fill="#E6E6E6"/>
<path d="M314.204 63.0817L304.599 61.5654L303.925 65.8109L313.53 67.3272L314.204 63.0817Z" fill="white"/>
<path d="M332.02 74.9196L322.415 73.4033L321.741 77.6488L331.346 79.1651L332.02 74.9196Z" fill="white"/>
<path d="M379.196 86.8867L369.59 85.3705L368.916 89.616L378.521 91.1322L379.196 86.8867Z" fill="white"/>
<path d="M372.383 67.7665L362.778 66.2502L362.103 70.4957L371.708 72.012L372.383 67.7665Z" fill="#E6E6E6"/>
<path d="M353.328 64.7535L334.117 61.7201L333.442 65.9668L352.653 69.0002L353.328 64.7535Z" fill="white"/>
<path d="M356.845 42.5943L337.634 39.5609L336.959 43.8077L356.17 46.841L356.845 42.5943Z" fill="white"/>
<path d="M299.946 28.9297L291.475 82.2295L387.524 97.3907L395.994 44.0909L299.946 28.9297ZM394.977 48.4564L385.718 46.9949L386.37 42.8942L395.628 44.3556L394.977 48.4564ZM332.94 70.3476L333.592 66.2464L352.423 69.219L351.771 73.3201L332.94 70.3476ZM351.721 73.6347L351.07 77.7359L332.238 74.7634L332.89 70.6622L351.721 73.6347ZM354.528 55.9732L353.877 60.0743L335.045 57.1018L335.697 53.0001L354.528 55.9732ZM335.747 52.686L336.399 48.5844L355.23 51.5569L354.578 55.6581L335.747 52.686ZM334.343 61.5171L334.995 57.4154L353.827 60.3879L353.175 64.4891L334.343 61.5171ZM353.125 64.8042L352.473 68.9053L333.642 65.9328L334.294 61.8312L353.125 64.8042ZM334.73 57.0516L325.474 55.5905L326.126 51.4893L335.382 52.9504L334.73 57.0516ZM334.68 57.3662L334.028 61.4673L324.772 60.0062L325.424 55.9046L334.68 57.3662ZM333.978 61.7814L333.327 65.8826L324.071 64.4215L324.722 60.3203L333.978 61.7814ZM333.277 66.1967L332.625 70.2979L323.369 68.8368L324.021 64.7356L333.277 66.1967ZM352.738 69.2687L361.995 70.7299L361.344 74.8311L352.087 73.3699L352.738 69.2687ZM352.788 68.9541L353.44 64.8534L362.697 66.3147L362.045 70.4158L352.788 68.9541ZM353.49 64.5388L354.142 60.4377L363.399 61.8989L362.747 66.0001L353.49 64.5388ZM354.192 60.1236L354.843 56.0224L364.101 57.4836L363.449 61.5848L354.192 60.1236ZM354.893 55.7083L355.545 51.6066L364.802 53.0679L364.151 57.169L354.893 55.7083ZM355.595 51.293L356.247 47.1914L365.504 48.6526L364.852 52.7538L355.595 51.293ZM355.28 51.2433L336.449 48.2707L337.1 44.1691L355.932 47.1416L355.28 51.2433ZM336.134 48.221L326.877 46.7599L327.529 42.6583L336.785 44.1194L336.134 48.221ZM336.084 48.5356L335.432 52.6368L326.176 51.1757L326.828 47.0735L336.084 48.5356ZM325.859 51.1252L316.601 49.6638L317.252 45.5621L326.51 47.0235L325.859 51.1252ZM325.809 51.4398L325.157 55.5409L315.899 54.0795L316.551 49.9779L325.809 51.4398ZM325.107 55.855L324.455 59.9562L315.197 58.4948L315.849 54.3931L325.107 55.855ZM324.405 60.2703L323.754 64.3715L314.495 62.9101L315.147 58.8089L324.405 60.2703ZM323.704 64.6856L323.052 68.7867L313.794 67.3253L314.445 63.2242L323.704 64.6856ZM323.002 69.1008L322.35 73.2025L313.092 71.7411L313.744 67.6399L323.002 69.1008ZM323.317 69.1506L332.575 70.612L331.923 74.7136L322.667 73.2525L323.317 69.1506ZM331.873 75.0272L331.222 79.1284L321.966 77.6673L322.617 73.5666L331.873 75.0272ZM332.189 75.077L351.02 78.0495L350.368 82.1507L331.537 79.1781L332.189 75.077ZM351.335 78.0992L360.592 79.5605L359.94 83.6616L350.683 82.2004L351.335 78.0992ZM351.385 77.7846L352.037 73.6845L361.294 75.1457L360.642 79.2469L351.385 77.7846ZM361.61 75.1946L370.868 76.656L370.216 80.7572L360.958 79.2958L361.61 75.1946ZM361.66 74.88L362.311 70.7798L371.57 72.2412L370.918 76.3424L361.66 74.88ZM362.362 70.4647L363.013 66.3646L372.271 67.826L371.62 71.9271L362.362 70.4647ZM363.063 66.0495L363.715 61.9488L372.973 63.4102L372.321 67.5114L363.063 66.0495ZM363.765 61.6342L364.417 57.5335L373.675 58.9949L373.023 63.0961L363.765 61.6342ZM364.467 57.2189L365.118 53.1178L374.377 54.5792L373.725 58.6803L364.467 57.2189ZM365.168 52.8037L365.82 48.7025L375.078 50.1639L374.426 54.2651L365.168 52.8037ZM365.87 48.3884L366.522 44.2872L375.78 45.7486L375.128 49.8493L365.87 48.3884ZM365.555 48.3387L356.297 46.8773L356.949 42.7761L366.206 44.2373L365.555 48.3387ZM355.982 46.8275L337.15 43.855L337.802 39.7538L356.633 42.7264L355.982 46.8275ZM336.835 43.8053L327.579 42.3442L328.231 38.243L337.487 39.7041L336.835 43.8053ZM327.262 42.2941L318.004 40.8327L318.656 36.7316L327.914 38.193L327.262 42.2941ZM327.212 42.6087L326.56 46.7099L317.302 45.2485L317.954 41.1468L327.212 42.6087ZM316.987 45.1983L307.729 43.7369L308.381 39.6357L317.639 41.0971L316.987 45.1983ZM316.937 45.5129L316.285 49.614L307.027 48.1526L307.679 44.051L316.937 45.5129ZM316.236 49.9281L315.584 54.0293L306.326 52.5679L306.977 48.4667L316.236 49.9281ZM315.534 54.3434L314.882 58.4446L305.624 56.9832L306.276 52.882L315.534 54.3434ZM314.832 58.7587L314.18 62.8598L304.922 61.3984L305.574 57.2978L314.832 58.7587ZM314.13 63.1739L313.479 67.2751L304.221 65.8137L304.872 61.713L314.13 63.1739ZM313.429 67.5892L312.777 71.6914L303.519 70.23L304.171 66.1288L313.429 67.5892ZM312.727 72.0045L312.075 76.1056L302.817 74.6442L303.469 70.5441L312.727 72.0045ZM313.042 72.0542L322.3 73.5156L321.649 77.6168L312.39 76.1554L313.042 72.0542ZM321.599 77.931L320.947 82.0341L311.688 80.5726L312.34 76.4705L321.599 77.931ZM321.914 77.9807L331.172 79.442L330.52 83.5452L321.264 82.0841L321.914 77.9807ZM331.487 79.4918L350.319 82.4644L349.667 86.5675L330.835 83.5949L331.487 79.4918ZM350.634 82.5141L359.89 83.9753L359.238 88.0784L349.981 86.6171L350.634 82.5141ZM360.207 84.0252L369.465 85.4866L368.813 89.5898L359.554 88.1283L360.207 84.0252ZM360.257 83.7106L360.909 79.6109L370.167 81.0723L369.515 85.1735L360.257 83.7106ZM370.482 81.1206L379.74 82.582L379.088 86.6832L369.83 85.2217L370.482 81.1206ZM370.532 80.806L371.183 76.7068L380.442 78.1682L379.79 82.2694L370.532 80.806ZM371.234 76.3907L371.885 72.291L381.143 73.7524L380.492 77.8536L371.234 76.3907ZM371.935 71.9755L372.587 67.8758L381.845 69.3372L381.193 73.4383L371.935 71.9755ZM372.637 67.5602L373.289 63.46L382.547 64.9214L381.895 69.0226L372.637 67.5602ZM373.339 63.1449L373.99 59.0447L383.248 60.5061L382.597 64.6073L373.339 63.1449ZM374.04 58.7296L374.692 54.629L383.95 56.0904L383.298 60.1915L374.04 58.7296ZM374.742 54.3144L375.394 50.2137L384.652 51.6751L384 55.7763L374.742 54.3144ZM375.444 49.8991L376.095 45.7984L385.354 47.2598L384.702 51.3605L375.444 49.8991ZM376.145 45.4838L376.797 41.3832L386.055 42.8446L385.403 46.9457L376.145 45.4838ZM375.83 45.4341L366.572 43.9726L367.223 39.872L376.482 41.3334L375.83 45.4341ZM366.257 43.923L356.999 42.4615L357.65 38.3608L366.907 39.8221L366.257 43.923ZM356.684 42.4118L337.852 39.4392L338.504 35.3386L357.335 38.3111L356.684 42.4118ZM337.538 39.3896L328.281 37.9284L328.933 33.8277L338.189 35.2888L337.538 39.3896ZM327.964 37.8784L318.706 36.417L319.357 32.3163L328.616 33.7777L327.964 37.8784ZM318.391 36.3673L309.133 34.9058L309.784 30.8052L319.042 32.2666L318.391 36.3673ZM318.341 36.6819L317.689 40.7826L308.431 39.3211L309.083 35.2204L318.341 36.6819ZM308.116 39.2714L298.858 37.81L299.509 33.7093L308.767 35.1707L308.116 39.2714ZM308.066 39.586L307.414 43.6871L298.156 42.2257L298.808 38.1246L308.066 39.586ZM307.364 44.0012L306.712 48.1024L297.454 46.641L298.106 42.5398L307.364 44.0012ZM306.662 48.4165L306.011 52.5177L296.752 51.0563L297.404 46.9556L306.662 48.4165ZM305.961 52.8318L305.309 56.9329L296.051 55.4715L296.703 51.3709L305.961 52.8318ZM305.259 57.247L304.607 61.3487L295.349 59.8873L296.001 55.7866L305.259 57.247ZM304.557 61.6623L303.906 65.7635L294.647 64.3021L295.299 60.2019L304.557 61.6623ZM303.856 66.0776L303.204 70.1787L293.946 68.7173L294.597 64.6177L303.856 66.0776ZM303.154 70.4929L302.502 74.594L293.244 73.1326L293.896 69.0329L303.154 70.4929ZM302.452 74.9081L301.8 79.0118L292.542 77.5504L293.194 73.4482L302.452 74.9081ZM302.767 74.9579L312.026 76.4193L311.373 80.5229L302.115 79.0615L302.767 74.9579ZM311.324 80.835L310.672 84.9357L301.414 83.4743L302.065 79.3751L311.324 80.835ZM311.639 80.8848L320.897 82.3462L320.245 86.4468L310.987 84.9854L311.639 80.8848ZM321.212 82.3959L330.47 83.8573L329.818 87.958L320.562 86.4969L321.212 82.3959ZM330.785 83.907L349.617 86.8796L348.965 90.9802L330.134 88.0077L330.785 83.907ZM349.932 86.9293L359.189 88.3905L358.537 92.4912L349.28 91.03L349.932 86.9293ZM359.505 88.4404L368.763 89.9018L368.111 94.0025L358.853 92.5411L359.505 88.4404ZM369.078 89.9516L378.336 91.413L377.685 95.5136L368.426 94.0522L369.078 89.9516ZM369.128 89.637L369.78 85.5373L379.038 86.9987L378.386 91.1008L369.128 89.637ZM379.353 87.0469L388.611 88.5083L387.959 92.6119L378.701 91.1505L379.353 87.0469ZM379.403 86.7323L380.054 82.6331L389.313 84.0945L388.661 88.1957L379.403 86.7323ZM380.105 82.317L380.756 78.2179L390.014 79.6793L389.363 83.7804L380.105 82.317ZM380.806 77.9018L381.458 73.8021L390.716 75.2635L390.064 79.3647L380.806 77.9018ZM381.508 73.4865L382.16 69.3868L391.418 70.8482L390.766 74.9494L381.508 73.4865ZM382.21 69.0712L382.861 64.9711L392.119 66.4325L391.468 70.5336L382.21 69.0712ZM382.911 64.656L383.563 60.5558L392.821 62.0172L392.169 66.1184L382.911 64.656ZM383.613 60.2407L384.265 56.14L393.523 57.6014L392.871 61.7026L383.613 60.2407ZM384.315 55.8254L384.966 51.7248L394.225 53.1862L393.573 57.2873L384.315 55.8254ZM385.016 51.4102L385.668 47.3095L394.926 48.7709L394.275 52.8716L385.016 51.4102ZM309.469 30.7554L308.817 34.8566L299.559 33.3952L300.211 29.294L309.469 30.7554ZM292.492 77.864L301.75 79.3254L301.099 83.426L291.84 81.9646L292.492 77.864ZM377.999 95.5648L378.651 91.4642L387.909 92.9256L387.257 97.0262L377.999 95.5648Z" fill="#E6E6E6"/>
<path d="M69.1096 80.7833C63.1041 74.4203 54.8368 70.6624 46.0846 70.3175V103.762L69.1096 80.7833Z" fill="#090814"/>
<path d="M69.1096 84.9479L46.0846 107.926H78.2626C78.274 99.3793 74.9977 91.1542 69.1096 84.9479Z" fill="#E4E4E4"/>
<path d="M78.2976 110.329C78.299 112.414 78.1059 114.494 77.7205 116.543C77.6905 116.705 77.659 116.866 77.626 117.027C76.8995 120.6 75.5879 124.03 73.7441 127.179C73.6441 127.347 73.5441 127.516 73.4441 127.682C71.6269 130.666 69.3545 133.348 66.7088 135.633C66.5778 135.748 66.4468 135.86 66.3138 135.971C60.6284 140.746 53.5095 143.492 46.0841 143.775V110.329H78.2976Z" fill="#F0F0F0"/>
<path d="M42.8297 143.803C43.2753 143.803 43.7178 143.792 44.1594 143.775V110.329L19.7872 134.652C26.0081 140.538 34.257 143.814 42.8297 143.803Z" fill="#CACACA"/>
<path d="M42.8747 74.452C38.4698 74.452 34.1081 75.3179 30.0385 77.0001C25.969 78.6824 22.2713 81.1481 19.1566 84.2565C16.0419 87.3649 13.5712 91.0551 11.8856 95.1164C10.2 99.1778 9.33245 103.531 9.33252 107.927H44.2393V74.482C43.7863 74.4655 43.3322 74.452 42.8747 74.452Z" fill="white"/>
<path d="M34.8728 110.329L27.8221 117.366L27.5915 117.596L27.5866 117.601L21.4359 123.737L21.2019 123.97L14.5576 130.6L14.3236 130.834L10.4997 134.649C7.17908 131.524 4.53441 127.754 2.72845 123.571C0.92249 119.389 -0.00653075 114.881 -0.00144407 110.326L34.8728 110.329Z" fill="white"/>
<path d="M14.3236 130.836C8.81992 125.397 5.60396 118.066 5.33215 110.341L5.99522 110.318C6.26125 117.875 9.40727 125.046 14.7912 130.367L14.3236 130.836Z" fill="#3F3D56"/>
<path d="M21.4418 123.745L20.9608 124.198C17.2943 120.335 14.7066 115.58 13.4554 110.407L13.7775 110.329H14.119C15.3495 115.357 17.8708 119.978 21.4348 123.738L21.4418 123.745Z" fill="#3F3D56"/>
<path d="M27.8391 117.39L27.5891 117.597L27.5841 117.602L27.3285 117.814C25.4675 115.592 23.9338 113.116 22.774 110.462L23.0776 110.329H23.4411C24.5648 112.867 26.0389 115.236 27.8206 117.366C27.8262 117.374 27.8324 117.382 27.8391 117.389V117.39Z" fill="#3F3D56"/>
<path d="M170.189 61.5523L128.232 75.9588C127.704 76.1396 127.125 76.1036 126.623 75.8588C126.12 75.614 125.736 75.1803 125.553 74.6529L105.91 17.7644C105.728 17.2366 105.763 16.6587 106.008 16.1573C106.253 15.656 106.687 15.2723 107.215 15.0903L149.172 0.683781C149.7 0.503034 150.279 0.539012 150.781 0.78382C151.284 1.02863 151.668 1.46228 151.851 1.98965L171.494 58.8782C171.676 59.406 171.641 59.9839 171.396 60.4852C171.151 60.9865 170.717 61.3703 170.189 61.5523Z" fill="#F2F2F2"/>
<path d="M170.189 61.5523L128.232 75.9588C127.704 76.1396 127.125 76.1036 126.623 75.8588C126.12 75.614 125.736 75.1803 125.553 74.6529L105.91 17.7644C105.728 17.2366 105.763 16.6587 106.008 16.1573C106.253 15.656 106.687 15.2723 107.215 15.0903L149.172 0.683781C149.7 0.503034 150.279 0.539012 150.781 0.78382C151.284 1.02863 151.668 1.46228 151.851 1.98965L171.494 58.8782C171.676 59.406 171.641 59.9839 171.396 60.4852C171.151 60.9865 170.717 61.3703 170.189 61.5523ZM107.296 15.3263C106.831 15.4871 106.449 15.8254 106.233 16.2671C106.018 16.7089 105.986 17.218 106.146 17.6833L125.789 74.5718C125.95 75.0372 126.29 75.4198 126.733 75.6358C127.176 75.8519 127.687 75.8836 128.153 75.724L170.108 61.3182C170.574 61.1576 170.957 60.819 171.173 60.3767C171.389 59.9343 171.42 59.4244 171.26 58.9587L151.617 2.07013C151.455 1.60527 151.116 1.22316 150.673 1.00754C150.23 0.791912 149.719 0.760356 149.253 0.919784L107.296 15.3263Z" fill="#D6D6E3"/>
<path d="M146.162 18.2499L134.285 22.3298C134.036 22.4154 133.763 22.3986 133.526 22.283C133.289 22.1675 133.107 21.9627 133.021 21.7137C132.935 21.4647 132.952 21.1918 133.067 20.9552C133.183 20.7186 133.388 20.5376 133.637 20.452L145.514 16.3721C145.764 16.2865 146.037 16.3033 146.274 16.4189C146.511 16.5344 146.692 16.7392 146.778 16.9882C146.864 17.2372 146.847 17.51 146.732 17.7466C146.617 17.9832 146.412 18.1643 146.162 18.2499Z" fill="white"/>
<path d="M151.13 20.0828L135.377 25.4944C135.128 25.5801 134.854 25.5632 134.618 25.4477C134.381 25.3321 134.199 25.1273 134.113 24.8783C134.027 24.6293 134.044 24.3564 134.159 24.1198C134.275 23.8832 134.48 23.7022 134.729 23.6165L150.482 18.2051C150.731 18.1194 151.004 18.1363 151.241 18.2518C151.478 18.3674 151.66 18.5722 151.746 18.8212C151.832 19.0702 151.815 19.3431 151.7 19.5797C151.584 19.8163 151.38 19.9972 151.13 20.0828Z" fill="white"/>
<path d="M151.425 33.5604L121.842 43.7238C121.593 43.8094 121.32 43.7926 121.083 43.677C120.846 43.5614 120.665 43.3566 120.579 43.1075C120.493 42.8585 120.509 42.5856 120.625 42.349C120.74 42.1123 120.945 41.9312 121.194 41.8456L150.777 31.6822C151.026 31.5966 151.3 31.6134 151.537 31.729C151.774 31.8445 151.955 32.0494 152.041 32.2985C152.127 32.5475 152.11 32.8204 151.995 33.057C151.879 33.2937 151.675 33.4748 151.425 33.5604Z" fill="#D6D6E3"/>
<path d="M156.393 35.3937L122.935 46.889C122.685 46.9746 122.412 46.9578 122.175 46.8422C121.938 46.7266 121.757 46.5218 121.671 46.2727C121.585 46.0237 121.601 45.7508 121.717 45.5141C121.832 45.2775 122.037 45.0964 122.286 45.0108L155.745 33.5155C155.994 33.4299 156.268 33.4467 156.505 33.5623C156.742 33.6778 156.923 33.8827 157.009 34.1317C157.095 34.3808 157.078 34.6537 156.963 34.8903C156.848 35.127 156.643 35.3081 156.393 35.3937Z" fill="#D6D6E3"/>
<path d="M155.027 43.9996L125.444 54.163C125.195 54.2486 124.922 54.2318 124.685 54.1162C124.448 54.0007 124.266 53.7958 124.181 53.5467C124.095 53.2977 124.111 53.0248 124.227 52.7882C124.342 52.5515 124.547 52.3705 124.796 52.2848L154.379 42.1214C154.628 42.0358 154.901 42.0526 155.138 42.1682C155.375 42.2838 155.557 42.4886 155.643 42.7377C155.729 42.9867 155.712 43.2596 155.597 43.4963C155.481 43.7329 155.276 43.914 155.027 43.9996Z" fill="#D6D6E3"/>
<path d="M159.995 45.8329L126.536 57.3282C126.287 57.4138 126.014 57.397 125.777 57.2814C125.54 57.1658 125.359 56.961 125.273 56.7119C125.187 56.4629 125.203 56.19 125.319 55.9533C125.434 55.7167 125.639 55.5356 125.888 55.45L159.347 43.9547C159.596 43.8691 159.869 43.8859 160.106 44.0015C160.343 44.117 160.525 44.3219 160.611 44.5709C160.697 44.82 160.68 45.0929 160.565 45.3296C160.449 45.5662 160.244 45.7473 159.995 45.8329Z" fill="#D6D6E3"/>
<path d="M158.629 54.4393L129.046 64.6027C128.797 64.6883 128.524 64.6715 128.287 64.5559C128.05 64.4404 127.868 64.2355 127.782 63.9864C127.697 63.7374 127.713 63.4645 127.829 63.2279C127.944 62.9912 128.149 62.8101 128.398 62.7245L157.981 52.5611C158.23 52.4755 158.503 52.4923 158.74 52.6079C158.977 52.7235 159.159 52.9283 159.245 53.1774C159.331 53.4264 159.314 53.6993 159.199 53.9359C159.083 54.1726 158.878 54.3537 158.629 54.4393Z" fill="#D6D6E3"/>
<path d="M163.597 56.2726L130.138 67.7679C129.889 67.8535 129.616 67.8367 129.379 67.7211C129.142 67.6055 128.96 67.4007 128.874 67.1516C128.789 66.9026 128.805 66.6297 128.921 66.393C129.036 66.1564 129.241 65.9753 129.49 65.8897L162.949 54.3944C163.198 54.3088 163.471 54.3256 163.708 54.4412C163.945 54.5567 164.127 54.7616 164.213 55.0106C164.299 55.2597 164.282 55.5326 164.167 55.7693C164.051 56.0059 163.846 56.187 163.597 56.2726Z" fill="#D6D6E3"/>
<path d="M114.927 22.9601L128.252 18.3846C128.581 18.2717 128.941 18.2939 129.254 18.4462C129.566 18.5986 129.806 18.8686 129.919 19.1969L132.804 27.5531C132.86 27.7157 132.884 27.8876 132.874 28.0592C132.863 28.2308 132.819 28.3986 132.744 28.553C132.668 28.7075 132.563 28.8456 132.434 28.9594C132.305 29.0733 132.155 29.1606 131.992 29.2165L118.667 33.792C118.338 33.9048 117.978 33.8827 117.666 33.7306C117.353 33.5784 117.114 33.3087 117.001 32.9806L114.115 24.6235C114.002 24.2952 114.023 23.9355 114.176 23.6235C114.328 23.3116 114.598 23.0729 114.927 22.9601Z" fill="white"/>
<g clip-path="url(#clip1_41_1085)">
<path d="M188.535 246.781C188.535 246.781 192.635 244.939 195.242 246.228C196.025 246.572 196 247.773 195.964 249.403C195.885 252.9 195.012 258.145 196.254 259.379C197.642 260.569 202.957 258.939 206.862 257.256C208.418 256.58 209.916 255.777 211.339 254.856C214.726 252.768 218.213 248.853 217.801 244.903C217.39 240.953 211.079 242.685 208.729 243.276C207.205 243.571 200.364 245.356 199.272 245.228C198.18 245.101 197.964 244.904 197.611 244.465C197.611 244.465 196.181 242.311 191.751 244.281C189.369 245.472 188.535 246.781 188.535 246.781Z" fill="white"/>
<path d="M207.586 260.245C208.288 260.245 208.858 259.68 208.858 258.984C208.858 258.287 208.288 257.723 207.586 257.723C206.884 257.723 206.315 258.287 206.315 258.984C206.315 259.68 206.884 260.245 207.586 260.245Z" fill="white"/>
<path d="M198.783 262.798C199.486 262.798 200.055 262.233 200.055 261.537C200.055 260.84 199.486 260.275 198.783 260.275C198.081 260.275 197.512 260.84 197.512 261.537C197.512 262.233 198.081 262.798 198.783 262.798Z" fill="white"/>
</g>
</g>
<defs>
<clipPath id="clip0_41_1085">
<rect width="400" height="310" fill="white"/>
</clipPath>
<clipPath id="clip1_41_1085">
<rect width="29.2994" height="20.4115" fill="white" transform="translate(188.535 242.387)"/>
</clipPath>
</defs>
</svg>
