<svg width="9" height="5" viewBox="0 0 9 5" fill="none" xmlns="http://www.w3.org/2000/svg">
<path d="M0.5 -4.86374e-05C0.35 -4.86374e-05 0.229333 0.0499511 0.138 0.149951C0.0466667 0.249951 0.000666667 0.366618 0 0.499951C0 0.533285 0.0500001 0.649952 0.15 0.849952L3.775 4.47495C3.85833 4.55829 3.94167 4.61662 4.025 4.64995C4.10833 4.68328 4.2 4.69995 4.3 4.69995C4.4 4.69995 4.49167 4.68328 4.575 4.64995C4.65833 4.61662 4.74167 4.55829 4.825 4.47495L8.45 0.849952C8.5 0.799952 8.53767 0.745618 8.563 0.686952C8.58833 0.628285 8.60067 0.565951 8.6 0.499951C8.6 0.366618 8.55433 0.249951 8.463 0.149951C8.37167 0.0499511 8.25067 -4.86374e-05 8.1 -4.86374e-05H0.5Z" fill="white"/>
</svg>
