<svg width="37" height="26" viewBox="0 0 37 26" fill="none" xmlns="http://www.w3.org/2000/svg">
<g clip-path="url(#clip0_72_4)">
<path d="M0 5.59796C0 5.59796 5.17776 3.25115 8.46924 4.89374C9.45828 5.33176 9.42682 6.86089 9.38092 8.93759C9.28131 13.3925 8.17954 20.0724 9.74731 21.6448C11.4999 23.1608 18.2119 21.0842 23.1432 18.9406C25.1091 18.0796 27.0001 17.0569 28.7969 15.883C33.0747 13.2234 37.4778 8.2366 36.9581 3.20525C36.4383 -1.8261 28.4685 0.380405 25.5014 1.13318C23.5765 1.50825 14.9375 3.78229 13.5585 3.61967C12.1795 3.45705 11.9069 3.20656 11.4612 2.64789C11.4612 2.64789 9.65553 -0.0956488 4.06093 2.41249C1.05259 3.92983 0 5.59796 0 5.59796Z" fill="white"/>
<path d="M24.0582 22.7476C24.9451 22.7476 25.664 22.0283 25.664 21.1411C25.664 20.2538 24.9451 19.5345 24.0582 19.5345C23.1714 19.5345 22.4525 20.2538 22.4525 21.1411C22.4525 22.0283 23.1714 22.7476 24.0582 22.7476Z" fill="white"/>
<path d="M12.9418 25.9993C13.8286 25.9993 14.5476 25.28 14.5476 24.3928C14.5476 23.5055 13.8286 22.7863 12.9418 22.7863C12.0549 22.7863 11.336 23.5055 11.336 24.3928C11.336 25.28 12.0549 25.9993 12.9418 25.9993Z" fill="white"/>
</g>
<defs>
<clipPath id="clip0_72_4">
<rect width="37" height="26" fill="white"/>
</clipPath>
</defs>
</svg>
