<svg width="50" height="34" viewBox="0 0 50 34" fill="none" xmlns="http://www.w3.org/2000/svg">
<g clip-path="url(#clip0_1_9)">
<path d="M15.2507 34C16.4478 34 17.4182 33.0028 17.4182 31.7728C17.4182 30.5427 16.4478 29.5455 15.2507 29.5455C14.0537 29.5455 13.0833 30.5427 13.0833 31.7728C13.0833 33.0028 14.0537 34 15.2507 34Z" fill="black"/>
<path d="M30.5379 31.1756C31.735 31.1756 32.7054 30.1784 32.7054 28.9483C32.7054 27.7183 31.735 26.7211 30.5379 26.7211C29.3409 26.7211 28.3705 27.7183 28.3705 28.9483C28.3705 30.1784 29.3409 31.1756 30.5379 31.1756Z" fill="black"/>
<path d="M0 5.05972C0 5.05972 7.20142 2.33626 11.4717 4.93567C12.7604 5.63961 12.5695 7.75145 12.3028 10.6192C11.7328 16.77 9.59627 25.8954 11.5531 28.2293C13.7655 30.5027 23.0052 28.3044 29.8557 25.8348C34.213 24.2653 37.4614 22.3381 37.7674 22.1737C43.7868 18.9251 50.205 12.4713 49.9972 5.46074C49.7894 -1.54986 38.8427 0.700454 34.7746 1.44191C32.1467 1.76791 20.2931 4.0442 18.4513 3.68068C16.6096 3.31717 16.2642 2.94789 15.7224 2.13143C15.7224 2.13143 13.5606 -1.84414 5.78079 1.06397C1.58066 2.85845 0 5.05972 0 5.05972Z" fill="black"/>
</g>
<defs>
<clipPath id="clip0_1_9">
<rect width="50" height="34" fill="white"/>
</clipPath>
</defs>
</svg>
