<svg width="15" height="16" viewBox="0 0 15 16" fill="none" xmlns="http://www.w3.org/2000/svg">
<path d="M0.626099 6.74938C0.460338 6.74938 0.301367 6.68353 0.184157 6.56632C0.0669468 6.44911 0.00109863 6.29014 0.00109863 6.12438V1.12563C0.00109863 0.959865 0.0669468 0.800894 0.184157 0.683684C0.301367 0.566474 0.460338 0.500626 0.626099 0.500626H5.6261C5.79186 0.500626 5.95083 0.566474 6.06804 0.683684C6.18525 0.800894 6.2511 0.959865 6.2511 1.12563V6.12438C6.2511 6.29014 6.18525 6.44911 6.06804 6.56632C5.95083 6.68353 5.79186 6.74938 5.6261 6.74938H0.626099ZM9.3761 6.74938C9.21034 6.74938 9.05137 6.68353 8.93416 6.56632C8.81695 6.44911 8.7511 6.29014 8.7511 6.12438V1.12563C8.7511 0.959865 8.81695 0.800894 8.93416 0.683684C9.05137 0.566474 9.21034 0.500626 9.3761 0.500626H14.3748C14.5406 0.500626 14.6996 0.566474 14.8168 0.683684C14.934 0.800894 14.9998 0.959865 14.9998 1.12563V6.12438C14.9998 6.29014 14.934 6.44911 14.8168 6.56632C14.6996 6.68353 14.5406 6.74938 14.3748 6.74938H9.3761ZM0.626099 15.4994C0.460338 15.4994 0.301367 15.4335 0.184157 15.3163C0.0669468 15.1991 0.00109863 15.0401 0.00109863 14.8744V9.87438C0.00109863 9.70862 0.0669468 9.54964 0.184157 9.43243C0.301367 9.31522 0.460338 9.24938 0.626099 9.24938H5.6261C5.79186 9.24938 5.95083 9.31522 6.06804 9.43243C6.18525 9.54964 6.2511 9.70862 6.2511 9.87438V14.8744C6.2511 15.0401 6.18525 15.1991 6.06804 15.3163C5.95083 15.4335 5.79186 15.4994 5.6261 15.4994H0.626099ZM9.3761 15.4994C9.21034 15.4994 9.05137 15.4335 8.93416 15.3163C8.81695 15.1991 8.7511 15.0401 8.7511 14.8744V9.87438C8.7511 9.70862 8.81695 9.54964 8.93416 9.43243C9.05137 9.31522 9.21034 9.24938 9.3761 9.24938H14.3748C14.5406 9.24938 14.6996 9.31522 14.8168 9.43243C14.934 9.54964 14.9998 9.70862 14.9998 9.87438V14.8744C14.9998 15.0401 14.934 15.1991 14.8168 15.3163C14.6996 15.4335 14.5406 15.4994 14.3748 15.4994H9.3761Z" fill="#DA0100"/>
</svg>
