<svg width="35" height="36" viewBox="0 0 35 36" fill="none" xmlns="http://www.w3.org/2000/svg">
<rect x="0.750977" y="0.875469" width="34.2491" height="34.2491" rx="10" fill="#F9FAFB"/>
<path fill-rule="evenodd" clip-rule="evenodd" d="M14.709 14.0419C14.709 13.2021 15.0427 12.3967 15.6365 11.8029C16.2303 11.2091 17.0357 10.8755 17.8755 10.8755C18.7153 10.8755 19.5207 11.2091 20.1145 11.8029C20.7084 12.3967 21.042 13.2021 21.042 14.0419C21.042 14.8817 20.7084 15.6871 20.1145 16.281C19.5207 16.8748 18.7153 17.2084 17.8755 17.2084C17.0357 17.2084 16.2303 16.8748 15.6365 16.281C15.0427 15.6871 14.709 14.8817 14.709 14.0419ZM14.709 18.7916C13.6593 18.7916 12.6526 19.2086 11.9103 19.9509C11.168 20.6932 10.751 21.6999 10.751 22.7497C10.751 23.3795 11.0012 23.9836 11.4466 24.429C11.8919 24.8743 12.496 25.1245 13.1258 25.1245H22.6252C23.255 25.1245 23.8591 24.8743 24.3045 24.429C24.7498 23.9836 25 23.3795 25 22.7497C25 21.6999 24.583 20.6932 23.8407 19.9509C23.0985 19.2086 22.0917 18.7916 21.042 18.7916H14.709Z" fill="black"/>
</svg>
